<svg xmlns="http://www.w3.org/2000/svg" viewBox="0 0 280 48" fill="none">
  <!-- Arrow-circle icon -->
  <circle cx="22" cy="24" r="20" fill="#d4a87c"/>
  <line x1="12" y1="24" x2="30" y2="24" stroke="#fff" stroke-width="3.2" stroke-linecap="round"/>
  <polyline points="25,18 32,24 25,30" stroke="#fff" stroke-width="3.2" stroke-linecap="round" stroke-linejoin="round" fill="none"/>
  <!-- "Ravenote" in Comfortaa Bold, converted to paths -->
  <g fill="#c49572" transform="translate(54, 12)">
    <!-- R -->
    <path d="M0 24V1.2h7.8c2.3 0 4.1.6 5.3 1.7 1.2 1.1 1.8 2.7 1.8 4.6 0 1.4-.4 2.7-1.1 3.7-.7 1-1.8 1.7-3.1 2.1l4.8 10.7h-3.8l-4.3-10H3.4v10H0zm3.4-13h4.2c1.4 0 2.4-.3 3.1-1 .7-.7 1.1-1.6 1.1-2.8 0-1.2-.4-2.1-1.1-2.8-.7-.6-1.7-1-3.1-1H3.4v7.6z"/>
    <!-- a -->
    <path d="M24 24.4c-1.6 0-2.9-.4-3.9-1.3-1-.9-1.5-2-1.5-3.5 0-1.6.6-2.8 1.7-3.7 1.1-.9 2.7-1.3 4.6-1.3h3.7v-.7c0-1.2-.3-2.1-1-2.7-.6-.6-1.6-.9-2.8-.9-1 0-1.8.2-2.5.7-.7.5-1.1 1.1-1.3 1.8l-2.9-1c.4-1.3 1.2-2.3 2.3-3.1 1.2-.8 2.6-1.2 4.4-1.2 2.2 0 3.9.6 5.1 1.7 1.2 1.2 1.8 2.8 1.8 4.9V24h-3v-2.1c-.5.8-1.2 1.4-2.1 1.8-.9.5-1.9.7-3.1.7h.5zm.6-2.6c1.4 0 2.5-.4 3.3-1.3.8-.9 1.3-2 1.3-3.3h-3.4c-1.2 0-2.1.2-2.8.7-.6.5-1 1.1-1 2 0 .7.3 1.2.8 1.5.5.3 1.1.5 1.8.5z"/>
    <!-- v -->
    <path d="M39 7.8h3.3l4.4 12.4 4.4-12.4h3.3L48.8 24h-4.2L39 7.8z"/>
    <!-- e -->
    <path d="M60.5 24.4c-1.8 0-3.3-.4-4.5-1.2-1.2-.8-2.1-1.9-2.7-3.3-.6-1.3-.9-2.8-.9-4.4 0-1.6.3-3 .9-4.3.6-1.3 1.5-2.4 2.7-3.2 1.2-.8 2.6-1.2 4.3-1.2 1.7 0 3.1.4 4.3 1.2 1.1.8 2 1.9 2.6 3.2.6 1.3.9 2.7.9 4.2v1.1H55.6c.1 1.5.6 2.7 1.5 3.6.9.9 2.1 1.3 3.5 1.3 1 0 1.9-.2 2.6-.7.7-.5 1.3-1.1 1.6-1.9l2.8 1c-.6 1.4-1.5 2.5-2.8 3.3-1.2.8-2.7 1.2-4.3 1.2zm-4.8-10.1h9.7c-.1-1.3-.6-2.4-1.4-3.2-.8-.8-2-1.2-3.4-1.2-1.4 0-2.5.4-3.4 1.2-.9.8-1.4 1.9-1.5 3.2z"/>
    <!-- n -->
    <path d="M72 24V7.8h3v2.4c.5-.9 1.3-1.6 2.2-2.1.9-.5 2-.8 3.2-.8 1.9 0 3.4.6 4.4 1.9 1 1.3 1.6 3 1.6 5.2V24h-3.2V14.8c0-1.5-.3-2.6-1-3.4-.7-.8-1.7-1.2-2.9-1.2-1.4 0-2.5.5-3.3 1.4-.8.9-1.2 2.2-1.2 3.8V24H72z"/>
    <!-- o -->
    <path d="M95 24.4c-1.7 0-3.2-.4-4.4-1.2-1.2-.8-2.1-1.9-2.8-3.3-.6-1.3-1-2.8-1-4.4 0-1.6.3-3.1 1-4.4.6-1.3 1.5-2.4 2.8-3.2 1.2-.8 2.7-1.2 4.4-1.2 1.7 0 3.2.4 4.4 1.2 1.2.8 2.1 1.9 2.8 3.2.6 1.3 1 2.8 1 4.4 0 1.6-.3 3.1-1 4.4-.6 1.3-1.6 2.4-2.8 3.3-1.2.8-2.7 1.2-4.4 1.2zm0-2.9c1.5 0 2.7-.5 3.5-1.6.9-1.1 1.3-2.5 1.3-4.3 0-1.8-.4-3.3-1.3-4.3-.9-1.1-2.1-1.6-3.5-1.6-1.5 0-2.7.5-3.5 1.6-.9 1.1-1.3 2.5-1.3 4.3 0 1.8.4 3.3 1.3 4.3.8 1.1 2 1.6 3.5 1.6z"/>
    <!-- t -->
    <path d="M108.5 24V10.4h-3V7.8h3V2.4h3.2v5.4h3.8v2.6h-3.8V24h-3.2z"/>
    <!-- e -->
    <path d="M122 24.4c-1.8 0-3.3-.4-4.5-1.2-1.2-.8-2.1-1.9-2.7-3.3-.6-1.3-.9-2.8-.9-4.4 0-1.6.3-3 .9-4.3.6-1.3 1.5-2.4 2.7-3.2 1.2-.8 2.6-1.2 4.3-1.2 1.7 0 3.1.4 4.3 1.2 1.1.8 2 1.9 2.6 3.2.6 1.3.9 2.7.9 4.2v1.1h-12.5c.1 1.5.6 2.7 1.5 3.6.9.9 2.1 1.3 3.5 1.3 1 0 1.9-.2 2.6-.7.7-.5 1.3-1.1 1.6-1.9l2.8 1c-.6 1.4-1.5 2.5-2.8 3.3-1.2.8-2.7 1.2-4.3 1.2zm-4.8-10.1h9.7c-.1-1.3-.6-2.4-1.4-3.2-.8-.8-2-1.2-3.4-1.2-1.4 0-2.5.4-3.4 1.2-.9.8-1.4 1.9-1.5 3.2z"/>
  </g>
</svg>
