<svg xmlns="http://www.w3.org/2000/svg" viewBox="0 0 219 66" fill="none">
  <!-- c -->
  <path d="M25.55 23.50Q31.55 23.50 35.30 28.11L35.30 28.11Q35.68 28.54 35.68 29.12L35.68 29.12Q35.68 29.89 34.86 30.46L34.86 30.46Q34.43 30.75 33.95 30.75L33.95 30.75Q33.23 30.75 32.56 30.03L32.56 30.03Q31.12 28.45 29.39 27.66Q27.66 26.86 25.55 26.86L25.55 26.86Q22.91 26.86 20.85 28.14Q18.78 29.41 17.66 31.71Q16.53 34.02 16.53 36.90L16.53 36.90Q16.53 39.73 17.73 42.01Q18.93 44.29 21.09 45.58Q23.25 46.88 26.03 46.88L26.03 46.88Q29.87 46.88 32.22 44.82L32.22 44.82Q32.85 44.29 33.52 44.29L33.52 44.29Q34.10 44.29 34.58 44.67L34.58 44.67Q35.25 45.25 35.25 45.97L35.25 45.97Q35.25 46.59 34.77 47.02L34.77 47.02Q31.31 50.24 26.03 50.24L26.03 50.24Q22.29 50.24 19.31 48.49Q16.34 46.74 14.63 43.69Q12.93 40.64 12.93 36.90L12.93 36.90Q12.93 33.06 14.56 30.01Q16.19 26.96 19.07 25.23Q21.95 23.50 25.55 23.50L25.55 23.50Z" fill="#c49572"/>
  <!-- l -->
  <path d="M47.97 14.34Q47.97 13.52 48.50 13.02Q49.02 12.51 49.79 12.51L49.79 12.51Q50.61 12.51 51.11 13.02Q51.62 13.52 51.62 14.34L51.62 14.34L51.62 41.70Q51.62 43.76 52.46 45.06Q53.30 46.35 54.59 46.35L54.59 46.35L55.79 46.35Q56.51 46.35 56.94 46.86Q57.38 47.36 57.38 48.18L57.38 48.18Q57.38 48.99 56.78 49.50Q56.18 50 55.22 50L55.22 50L54.59 50Q51.66 50 49.82 47.67Q47.97 45.34 47.97 41.70L47.97 41.70L47.97 14.34Z" fill="#c49572"/>
  <circle cx="83.144" cy="33" r="19" fill="#d4a87c"/>
  <line x1="73.144" y1="33" x2="91.144" y2="33" stroke="#fff" stroke-width="3.2" stroke-linecap="round"/>
  <polyline points="86.144,27 92.144,33 86.144,39" stroke="#fff" stroke-width="3.2" stroke-linecap="round" stroke-linejoin="round" fill="none"/>
  <!-- s -->
  <path d="M121.54 23.50Q124.70 23.50 127.06 24.58Q129.41 25.66 130.85 27.58L130.85 27.58Q131.23 28.21 131.23 28.69L131.23 28.69Q131.23 29.50 130.46 29.98L130.46 29.98Q130.13 30.22 129.55 30.22L129.55 30.22Q128.54 30.22 127.87 29.50L127.87 29.50Q125.52 26.82 121.44 26.82L121.44 26.82Q118.80 26.82 117.22 27.90Q115.63 28.98 115.63 30.61L115.63 30.61Q115.63 32.34 117.12 33.37Q118.61 34.40 122.40 35.02L122.40 35.02Q127.54 35.89 129.74 37.83Q131.95 39.78 131.95 42.66L131.95 42.66Q131.95 44.86 130.63 46.59Q129.31 48.32 126.96 49.28Q124.61 50.24 121.63 50.24L121.63 50.24Q118.66 50.24 115.92 49.23Q113.18 48.22 111.50 46.40L111.50 46.40Q111.02 45.82 111.02 45.30L111.02 45.30Q111.02 44.48 111.79 43.86L111.79 43.86Q112.37 43.42 112.99 43.42L112.99 43.42Q113.81 43.42 114.38 44.10L114.38 44.10Q115.54 45.44 117.43 46.16Q119.33 46.88 121.63 46.88L121.63 46.88Q124.99 46.88 126.67 45.73Q128.35 44.58 128.40 42.70L128.40 42.70Q128.40 40.98 126.72 39.82Q125.04 38.67 121.39 38.10L121.39 38.10Q116.69 37.33 114.36 35.43Q112.03 33.54 112.03 30.85L112.03 30.85Q112.03 27.34 114.74 25.42Q117.46 23.50 121.54 23.50L121.54 23.50Z" fill="#c49572"/>
  <!-- p -->
  <path d="M157.68 23.50Q161.42 23.50 164.47 25.26Q167.52 27.01 169.27 30.08Q171.02 33.15 171.02 36.90L171.02 36.90Q171.02 40.64 169.32 43.69Q167.62 46.74 164.66 48.49Q161.71 50.24 158.06 50.24L158.06 50.24Q154.94 50.24 152.35 48.92Q149.76 47.60 148.08 45.30L148.08 45.30L148.08 59.36Q148.08 60.18 147.55 60.70Q147.02 61.23 146.21 61.23L146.21 61.23Q145.39 61.23 144.89 60.70Q144.38 60.18 144.38 59.36L144.38 59.36L144.38 48.61Q144.34 48.46 144.34 48.18L144.34 48.18L144.34 36.90Q144.34 33.15 146.09 30.08Q147.84 27.01 150.89 25.26Q153.94 23.50 157.68 23.50L157.68 23.50ZM157.68 46.88Q160.42 46.88 162.65 45.58Q164.88 44.29 166.15 42.01Q167.42 39.73 167.42 36.90L167.42 36.90Q167.42 34.06 166.15 31.78Q164.88 29.50 162.65 28.18Q160.42 26.86 157.68 26.86L157.68 26.86Q154.94 26.86 152.74 28.18Q150.53 29.50 149.26 31.78Q147.98 34.06 147.98 36.90L147.98 36.90Q147.98 37.71 148.03 38.10L148.03 38.10Q148.08 38.19 148.08 38.34L148.08 38.34Q148.56 42.08 151.22 44.48Q153.89 46.88 157.68 46.88L157.68 46.88Z" fill="#c49572"/>
  <!-- a -->
  <path d="M196.22 23.50Q199.97 23.50 203.02 25.26Q206.06 27.01 207.82 30.08Q209.57 33.15 209.57 36.90L209.57 36.90L209.57 48.18Q209.57 48.94 209.04 49.47Q208.51 50 207.70 50L207.70 50Q206.88 50 206.35 49.50Q205.82 48.99 205.82 48.18L205.82 48.18L205.82 45.30Q204.14 47.60 201.55 48.92Q198.96 50.24 195.84 50.24L195.84 50.24Q192.19 50.24 189.24 48.49Q186.29 46.74 184.58 43.69Q182.88 40.64 182.88 36.90L182.88 36.90Q182.88 33.15 184.63 30.08Q186.38 27.01 189.43 25.26Q192.48 23.50 196.22 23.50L196.22 23.50ZM196.22 46.88Q198.96 46.88 201.17 45.58Q203.38 44.29 204.65 42.01Q205.92 39.73 205.92 36.90L205.92 36.90Q205.92 34.06 204.65 31.78Q203.38 29.50 201.17 28.18Q198.96 26.86 196.22 26.86L196.22 26.86Q193.49 26.86 191.26 28.18Q189.02 29.50 187.75 31.78Q186.48 34.06 186.48 36.90L186.48 36.90Q186.48 39.73 187.75 42.01Q189.02 44.29 191.26 45.58Q193.49 46.88 196.22 46.88L196.22 46.88Z" fill="#c49572"/>
</svg>
